<?xml version="1.0" encoding="utf-8"?>
<!DOCTYPE svg PUBLIC "-//W3C//DTD SVG 1.1//EN" "http://www.w3.org/Graphics/SVG/1.1/DTD/svg11.dtd">
<svg version="1.1" id="fh_logo" xmlns="http://www.w3.org/2000/svg" xmlns:xlink="http://www.w3.org/1999/xlink" x="0px" y="0px"
	 width="100%" height="100%" viewBox="0 0 1045.734 497.467" enable-background="new 0 0 1045.734 497.467"
	 xml:space="preserve">
<path fill="#101010" d="M134.681,81.626l-19.539,110.928l1.396,1.395c13.488-13.485,27.913-23.132,43.265-28.953
	c15.352-5.81,32.798-8.721,52.337-8.721c24.184,0,45.588,4.426,64.2,13.256c18.601,8.841,34.303,20.701,47.103,35.581
	c12.79,14.891,22.559,32.441,29.309,52.673c6.738,20.232,10.118,41.751,10.118,64.534c0,25.116-4.885,48.488-14.654,70.115
	c-9.77,21.628-22.919,40.355-39.427,56.162c-16.519,15.817-35.709,28.026-57.571,36.627c-21.873,8.601-45.13,12.667-69.783,12.209
	c-23.726,0-46.406-3.14-68.038-9.418s-40.823-15.926-57.571-28.953c-16.748-13.016-30.126-29.182-40.125-48.487
	C5.692,391.279,0.458,368.834,0,343.249h99.092c2.322,22.325,10.696,40.116,25.122,53.371
	c14.415,13.256,32.798,19.883,55.128,19.883c13.019,0,24.773-2.671,35.24-8.023c10.467-5.342,19.299-12.318,26.518-20.93
	c7.207-8.601,12.79-18.597,16.748-29.999c3.947-11.392,5.932-23.132,5.932-35.232c0-12.558-1.865-24.418-5.583-35.581
	c-3.729-11.163-9.312-20.93-16.748-29.302c-7.447-8.372-16.29-14.88-26.517-19.535c-10.238-4.644-22.102-6.977-35.589-6.977
	c-17.686,0-32.1,3.139-43.265,9.419c-11.165,6.279-21.633,16.166-31.402,29.65H15.352L63.502,0h272.851v81.626H134.681z"/>
<path fill="#101010" d="M562.585,484.971c17.113-6.132,32.953-14.201,47.491-24.224c14.538-10.008,28.259-21.636,41.191-34.883
	c12.918-13.233,26.169-26.965,39.737-41.181c12.267,14.217,25.199,27.949,38.768,41.181c13.569,13.248,27.94,24.875,43.13,34.883
	c15.174,10.023,31.499,18.092,48.945,24.224c17.446,6.147,36.179,9.205,56.214,9.205c25.835,0,49.263-4.678,70.267-14.05
	c20.989-9.357,38.602-22.286,52.822-38.759c14.205-16.473,25.199-35.686,32.953-57.654c7.754-21.953,11.63-45.542,11.63-70.735
	c0-25.193-3.877-48.449-11.63-69.766c-7.754-21.317-18.748-39.879-32.953-55.716c-14.22-15.822-31.666-28.252-52.337-37.306
	c-20.687-9.039-43.948-13.566-69.783-13.566c-20.686,0-39.904,3.24-57.668,9.69c-17.779,6.465-34.255,15.019-49.43,25.678
	c-15.189,10.659-29.409,23.104-42.645,37.306c-13.251,14.217-26.017,28.751-38.284,43.604
	c-12.933-15.504-26.017-30.19-39.253-44.088c-13.251-13.883-27.471-26.162-42.645-36.821c-15.189-10.659-31.666-19.213-49.43-25.678
	c-17.779-6.45-37.315-9.69-58.637-9.69c-25.851,0-49.112,4.693-69.783,14.05c-20.686,9.372-38.132,21.968-52.337,37.79
	c-14.22,15.837-25.048,34.565-32.468,56.201c-7.436,21.65-11.146,45.057-11.146,70.251s3.877,48.782,11.63,70.735
	c7.754,21.968,19.051,40.863,33.922,56.685c14.856,15.837,32.62,28.433,53.306,37.79c20.671,9.372,44.25,14.05,70.752,14.05
	C526.24,494.177,545.457,491.118,562.585,484.971z M447.734,374.024c-13.569-14.853-20.353-33.914-20.353-57.169
	c0-21.317,6.618-40.53,19.869-57.654c13.236-17.108,31.166-25.678,53.791-25.678c12.266,0,24.548,2.756,36.83,8.236
	c12.267,5.496,24.064,12.445,35.376,20.833c11.297,8.403,22.125,17.608,32.468,27.616c10.328,10.023,19.384,19.228,27.138,27.616
	c-7.753,9.054-16.476,18.259-26.168,27.616c-9.692,9.372-20.035,17.775-31.015,25.193c-10.995,7.434-22.625,13.566-34.891,18.411
	c-12.282,4.845-24.563,7.267-36.83,7.267C480.036,396.31,461.303,388.892,447.734,374.024z M841.716,389.528
	c-11.964-4.512-23.428-10.492-34.407-17.926c-10.994-7.419-21.323-15.822-31.015-25.193c-9.692-9.357-18.748-18.895-27.138-28.585
	c7.754-8.388,16.477-17.593,26.169-27.616c9.692-10.008,19.869-19.213,30.53-27.616c10.661-8.388,21.959-15.337,33.922-20.833
	c11.948-5.481,24.381-8.236,37.314-8.236c23.897,0,42.796,8.085,56.698,24.224c13.887,16.155,20.838,35.534,20.838,58.139
	c0,22.619-6.466,41.666-19.384,57.169C922.312,388.559,903.897,396.31,880,396.31C866.431,396.31,853.665,394.055,841.716,389.528z"
	/>
</svg>